{
  "accessors": [
    {
      "bufferView": 2,
      "componentType": 5126,
      "count": 19057,
      "max": [
        15.293686866760254,
        10.592936515808105,
        5.5516791343688965
      ],
      "min": [
        -17.74582290649414,
        -0.04574084281921387,
        -5.5516791343688965
      ],
      "type": "VEC3"
    },
    {
      "bufferView": 2,
      "byteOffset": 228684,
      "componentType": 5126,
      "count": 19057,
      "max": [
        1.0,
        1.0,
        1.0
      ],
      "min": [
        -1.0,
        -1.0,
        -1.0
      ],
      "type": "VEC3"
    },
    {
      "bufferView": 1,
      "componentType": 5126,
      "count": 19057,
      "max": [
        1.0,
        1.0
      ],
      "min": [
        0.0,
        0.0
      ],
      "type": "VEC2"
    },
    {
      "bufferView": 1,
      "byteOffset": 152456,
      "componentType": 5126,
      "count": 19057,
      "max": [
        1.0,
        1.0
      ],
      "min": [
        0.0,
        0.0
      ],
      "type": "VEC2"
    },
    {
      "bufferView": 0,
      "componentType": 5125,
      "count": 44430,
      "type": "SCALAR"
    },
    {
      "bufferView": 2,
      "byteOffset": 457368,
      "componentType": 5126,
      "count": 40,
      "max": [
        7.204366207122803,
        9.832069396972656,
        3.7911884784698486
      ],
      "min": [
        1.0229051113128662,
        5.349730968475342,
        1.0928988456726074
      ],
      "type": "VEC3"
    },
    {
      "bufferView": 2,
      "byteOffset": 457848,
      "componentType": 5126,
      "count": 40,
      "max": [
        0.998169481754303,
        1.0,
        1.0
      ],
      "min": [
        -0.9280462265014648,
        -0.6723254919052124,
        -1.0
      ],
      "type": "VEC3"
    },
    {
      "bufferView": 1,
      "byteOffset": 304912,
      "componentType": 5126,
      "count": 40,
      "max": [
        1.0,
        1.0
      ],
      "min": [
        0.0,
        0.0
      ],
      "type": "VEC2"
    },
    {
      "bufferView": 0,
      "byteOffset": 177720,
      "componentType": 5125,
      "count": 60,
      "type": "SCALAR"
    }
  ],
  "asset": {
    "extras": {
      "author": "Steven Mai (https://sketchfab.com/aptronics)",
      "license": "CC-BY-4.0 (http://creativecommons.org/licenses/by/4.0/)",
      "source": "https://sketchfab.com/3d-models/components-of-crane-08b8b4f1bb7a46e9892e08bd9517f992",
      "title": "Components of Crane"
    },
    "generator": "Sketchfab-12.67.0",
    "version": "2.0"
  },
  "bufferViews": [
    {
      "buffer": 0,
      "byteLength": 177960,
      "name": "floatBufferViews",
      "target": 34963
    },
    {
      "buffer": 0,
      "byteLength": 305232,
      "byteOffset": 177960,
      "byteStride": 8,
      "name": "floatBufferViews",
      "target": 34962
    },
    {
      "buffer": 0,
      "byteLength": 458328,
      "byteOffset": 483192,
      "byteStride": 12,
      "name": "floatBufferViews",
      "target": 34962
    }
  ],
  "buffers": [
    {
      "byteLength": 941520,
      "uri": "scene.bin"
    }
  ],
  "images": [
    {
      "uri": "textures/CraneMat_baseColor.png"
    }
  ],
  "materials": [
    {
      "doubleSided": true,
      "name": "CraneMat",
      "pbrMetallicRoughness": {
        "baseColorTexture": {
          "index": 0
        },
        "roughnessFactor": 0.9251143292682926
      }
    },
    {
      "alphaMode": "BLEND",
      "doubleSided": true,
      "name": "transparentMat",
      "pbrMetallicRoughness": {
        "baseColorFactor": [
          0.0,
          0.0,
          0.0,
          0.6446265243902439
        ],
        "metallicFactor": 0.0,
        "roughnessFactor": 0.6
      }
    }
  ],
  "meshes": [
    {
      "name": "crane_CraneMat_0",
      "primitives": [
        {
          "attributes": {
            "NORMAL": 1,
            "POSITION": 0,
            "TEXCOORD_0": 2,
            "TEXCOORD_1": 3
          },
          "indices": 4,
          "material": 0,
          "mode": 4
        }
      ]
    },
    {
      "name": "crane_transparentMat_0",
      "primitives": [
        {
          "attributes": {
            "NORMAL": 6,
            "POSITION": 5,
            "TEXCOORD_0": 7
          },
          "indices": 8,
          "material": 1,
          "mode": 4
        }
      ]
    }
  ],
  "nodes": [
    {
      "children": [
        1
      ],
      "matrix": [
        0.005936748813837767,
        0.0,
        0.0,
        0.0,
        0.0,
        1.3182230449077551e-18,
        -0.005936748813837767,
        0.0,
        0.0,
        0.005936748813837767,
        1.3182230449077551e-18,
        0.0,
        0.0,
        0.0,
        0.0,
        1.0
      ],
      "name": "Sketchfab_model"
    },
    {
      "children": [
        2
      ],
      "matrix": [
        1.0,
        0.0,
        0.0,
        0.0,
        0.0,
        0.0,
        1.0,
        0.0,
        0.0,
        -1.0,
        0.0,
        0.0,
        0.0,
        0.0,
        0.0,
        1.0
      ],
      "name": "67d9f3d9a4284a91b16261dbd3d90344.fbx"
    },
    {
      "children": [
        3
      ],
      "name": "RootNode"
    },
    {
      "children": [
        4,
        5
      ],
      "name": "crane"
    },
    {
      "mesh": 0,
      "name": "crane_CraneMat_0"
    },
    {
      "mesh": 1,
      "name": "crane_transparentMat_0"
    }
  ],
  "samplers": [
    {
      "magFilter": 9729,
      "minFilter": 9987,
      "wrapS": 10497,
      "wrapT": 10497
    }
  ],
  "scene": 0,
  "scenes": [
    {
      "name": "Sketchfab_Scene",
      "nodes": [
        0
      ]
    }
  ],
  "textures": [
    {
      "sampler": 0,
      "source": 0
    }
  ]
}
